<mxfile host="app.diagrams.net" modified="2021-12-15T13:18:13.062Z" agent="5.0 (Macintosh; Intel Mac OS X 10_15_7) AppleWebKit/605.1.15 (KHTML, like Gecko) Version/15.1 Safari/605.1.15" etag="ULtpfE4CtVjnNcJxxBJf" version="15.9.6" type="github">
  <diagram id="M975OOxp2nYAE57-lVFQ" name="第 1 页">
    <mxGraphModel dx="1138" dy="606" grid="1" gridSize="10" guides="1" tooltips="1" connect="1" arrows="1" fold="1" page="1" pageScale="1" pageWidth="827" pageHeight="1169" math="0" shadow="0">
      <root>
        <mxCell id="0" />
        <mxCell id="1" parent="0" />
        <mxCell id="OO_ZD5q1rNDD2_6Hrn7g-1" value="40字节数据" style="rounded=0;whiteSpace=wrap;html=1;" parent="1" vertex="1">
          <mxGeometry x="220" y="340" width="170" height="110" as="geometry" />
        </mxCell>
        <mxCell id="OO_ZD5q1rNDD2_6Hrn7g-2" value="" style="shape=curlyBracket;whiteSpace=wrap;html=1;rounded=1;" parent="1" vertex="1">
          <mxGeometry x="200" y="320" width="20" height="130" as="geometry" />
        </mxCell>
        <mxCell id="OO_ZD5q1rNDD2_6Hrn7g-3" value="getbuf栈帧" style="text;html=1;align=center;verticalAlign=middle;resizable=0;points=[];autosize=1;strokeColor=none;fillColor=none;" parent="1" vertex="1">
          <mxGeometry x="130" y="375" width="70" height="20" as="geometry" />
        </mxCell>
        <mxCell id="OO_ZD5q1rNDD2_6Hrn7g-4" value="" style="rounded=0;whiteSpace=wrap;html=1;" parent="1" vertex="1">
          <mxGeometry x="220" y="150" width="170" height="190" as="geometry" />
        </mxCell>
        <mxCell id="OO_ZD5q1rNDD2_6Hrn7g-5" value="" style="shape=curlyBracket;whiteSpace=wrap;html=1;rounded=1;" parent="1" vertex="1">
          <mxGeometry x="200" y="150" width="20" height="170" as="geometry" />
        </mxCell>
        <mxCell id="OO_ZD5q1rNDD2_6Hrn7g-6" value="test栈帧" style="text;html=1;align=center;verticalAlign=middle;resizable=0;points=[];autosize=1;strokeColor=none;fillColor=none;" parent="1" vertex="1">
          <mxGeometry x="135" y="240" width="60" height="20" as="geometry" />
        </mxCell>
        <mxCell id="OO_ZD5q1rNDD2_6Hrn7g-7" value="0000000000401a4c" style="rounded=0;whiteSpace=wrap;html=1;" parent="1" vertex="1">
          <mxGeometry x="220" y="320" width="170" height="20" as="geometry" />
        </mxCell>
        <mxCell id="OO_ZD5q1rNDD2_6Hrn7g-8" value="" style="shape=curlyBracket;whiteSpace=wrap;html=1;rounded=1;rotation=-90;" parent="1" vertex="1">
          <mxGeometry x="295" y="375" width="20" height="170" as="geometry" />
        </mxCell>
        <mxCell id="OO_ZD5q1rNDD2_6Hrn7g-9" value="栈段" style="text;html=1;align=center;verticalAlign=middle;resizable=0;points=[];autosize=1;strokeColor=none;fillColor=none;" parent="1" vertex="1">
          <mxGeometry x="285" y="470" width="40" height="20" as="geometry" />
        </mxCell>
        <mxCell id="OO_ZD5q1rNDD2_6Hrn7g-10" value="" style="rounded=0;whiteSpace=wrap;html=1;" parent="1" vertex="1">
          <mxGeometry x="480" y="150" width="170" height="300" as="geometry" />
        </mxCell>
        <mxCell id="OO_ZD5q1rNDD2_6Hrn7g-11" value="" style="shape=curlyBracket;whiteSpace=wrap;html=1;rounded=1;rotation=-90;" parent="1" vertex="1">
          <mxGeometry x="555" y="375" width="20" height="170" as="geometry" />
        </mxCell>
        <mxCell id="OO_ZD5q1rNDD2_6Hrn7g-12" value="text段" style="text;html=1;align=center;verticalAlign=middle;resizable=0;points=[];autosize=1;strokeColor=none;fillColor=none;" parent="1" vertex="1">
          <mxGeometry x="540" y="470" width="50" height="20" as="geometry" />
        </mxCell>
        <mxCell id="OO_ZD5q1rNDD2_6Hrn7g-13" value="mov rax, rsp" style="rounded=0;whiteSpace=wrap;html=1;" parent="1" vertex="1">
          <mxGeometry x="480" y="410" width="170" height="20" as="geometry" />
        </mxCell>
        <mxCell id="OO_ZD5q1rNDD2_6Hrn7g-14" value="&lt;span style=&quot;text-align: center&quot;&gt;0000000000401a4c&lt;/span&gt;" style="text;whiteSpace=wrap;html=1;" parent="1" vertex="1">
          <mxGeometry x="660" y="397" width="130" height="25" as="geometry" />
        </mxCell>
        <mxCell id="OO_ZD5q1rNDD2_6Hrn7g-15" value="rsp与cookie的偏移距离" style="rounded=0;whiteSpace=wrap;html=1;" parent="1" vertex="1">
          <mxGeometry x="220" y="260" width="170" height="20" as="geometry" />
        </mxCell>
        <mxCell id="OO_ZD5q1rNDD2_6Hrn7g-16" value="0000000000401352" style="text;whiteSpace=wrap;html=1;" parent="1" vertex="1">
          <mxGeometry x="660" y="320" width="130" height="30" as="geometry" />
        </mxCell>
        <mxCell id="OO_ZD5q1rNDD2_6Hrn7g-17" value="touch2函数" style="rounded=0;whiteSpace=wrap;html=1;" parent="1" vertex="1">
          <mxGeometry x="480" y="195" width="170" height="55" as="geometry" />
        </mxCell>
        <mxCell id="OO_ZD5q1rNDD2_6Hrn7g-18" value="" style="endArrow=classic;html=1;rounded=0;exitX=1;exitY=0.5;exitDx=0;exitDy=0;entryX=0;entryY=0;entryDx=0;entryDy=0;" parent="1" source="OO_ZD5q1rNDD2_6Hrn7g-7" target="OO_ZD5q1rNDD2_6Hrn7g-13" edge="1">
          <mxGeometry width="50" height="50" relative="1" as="geometry">
            <mxPoint x="420" y="337.5" as="sourcePoint" />
            <mxPoint x="480" y="405" as="targetPoint" />
          </mxGeometry>
        </mxCell>
        <mxCell id="OO_ZD5q1rNDD2_6Hrn7g-20" value="返回地址" style="text;html=1;align=center;verticalAlign=middle;resizable=0;points=[];autosize=1;strokeColor=none;fillColor=none;" parent="1" vertex="1">
          <mxGeometry x="135" y="320" width="60" height="20" as="geometry" />
        </mxCell>
        <mxCell id="OO_ZD5q1rNDD2_6Hrn7g-21" value="ret" style="rounded=0;whiteSpace=wrap;html=1;" parent="1" vertex="1">
          <mxGeometry x="480" y="430" width="170" height="20" as="geometry" />
        </mxCell>
        <mxCell id="OO_ZD5q1rNDD2_6Hrn7g-22" value="&lt;span style=&quot;text-align: left&quot;&gt;00000000004019b2&lt;/span&gt;" style="rounded=0;whiteSpace=wrap;html=1;" parent="1" vertex="1">
          <mxGeometry x="220" y="300" width="170" height="20" as="geometry" />
        </mxCell>
        <mxCell id="OO_ZD5q1rNDD2_6Hrn7g-23" value="cookie" style="text;html=1;align=center;verticalAlign=middle;resizable=0;points=[];autosize=1;strokeColor=none;fillColor=none;" parent="1" vertex="1">
          <mxGeometry x="140" y="300" width="50" height="20" as="geometry" />
        </mxCell>
        <mxCell id="OO_ZD5q1rNDD2_6Hrn7g-24" value="lea rax, [rdi + rsi]" style="rounded=0;whiteSpace=wrap;html=1;" parent="1" vertex="1">
          <mxGeometry x="480" y="290" width="170" height="20" as="geometry" />
        </mxCell>
        <mxCell id="OO_ZD5q1rNDD2_6Hrn7g-25" value="ret" style="rounded=0;whiteSpace=wrap;html=1;" parent="1" vertex="1">
          <mxGeometry x="480" y="310" width="170" height="20" as="geometry" />
        </mxCell>
        <mxCell id="OO_ZD5q1rNDD2_6Hrn7g-26" value="00000000004019e6" style="text;whiteSpace=wrap;html=1;" parent="1" vertex="1">
          <mxGeometry x="660" y="278" width="130" height="30" as="geometry" />
        </mxCell>
        <mxCell id="OO_ZD5q1rNDD2_6Hrn7g-27" value="pop rsi" style="rounded=0;whiteSpace=wrap;html=1;" parent="1" vertex="1">
          <mxGeometry x="480" y="330" width="170" height="20" as="geometry" />
        </mxCell>
        <mxCell id="OO_ZD5q1rNDD2_6Hrn7g-28" value="ret" style="rounded=0;whiteSpace=wrap;html=1;" parent="1" vertex="1">
          <mxGeometry x="480" y="350" width="170" height="20" as="geometry" />
        </mxCell>
        <mxCell id="OO_ZD5q1rNDD2_6Hrn7g-31" value="mov rdi, rax" style="rounded=0;whiteSpace=wrap;html=1;" parent="1" vertex="1">
          <mxGeometry x="480" y="370" width="170" height="20" as="geometry" />
        </mxCell>
        <mxCell id="OO_ZD5q1rNDD2_6Hrn7g-32" value="ret" style="rounded=0;whiteSpace=wrap;html=1;" parent="1" vertex="1">
          <mxGeometry x="480" y="390" width="170" height="20" as="geometry" />
        </mxCell>
        <mxCell id="OO_ZD5q1rNDD2_6Hrn7g-33" value="00000000004019b2" style="text;whiteSpace=wrap;html=1;" parent="1" vertex="1">
          <mxGeometry x="660" y="360" width="130" height="30" as="geometry" />
        </mxCell>
        <mxCell id="OO_ZD5q1rNDD2_6Hrn7g-34" value="mov rdi, rax" style="rounded=0;whiteSpace=wrap;html=1;" parent="1" vertex="1">
          <mxGeometry x="480" y="250" width="170" height="20" as="geometry" />
        </mxCell>
        <mxCell id="OO_ZD5q1rNDD2_6Hrn7g-35" value="ret" style="rounded=0;whiteSpace=wrap;html=1;" parent="1" vertex="1">
          <mxGeometry x="480" y="270" width="170" height="20" as="geometry" />
        </mxCell>
        <mxCell id="OO_ZD5q1rNDD2_6Hrn7g-36" value="00000000004019b2" style="text;whiteSpace=wrap;html=1;" parent="1" vertex="1">
          <mxGeometry x="660" y="235" width="130" height="30" as="geometry" />
        </mxCell>
        <mxCell id="OO_ZD5q1rNDD2_6Hrn7g-37" value="00000000004019e6" style="rounded=0;whiteSpace=wrap;html=1;" parent="1" vertex="1">
          <mxGeometry x="220" y="240" width="170" height="20" as="geometry" />
        </mxCell>
        <mxCell id="OO_ZD5q1rNDD2_6Hrn7g-43" value="&lt;span style=&quot;text-align: left&quot;&gt;0000000000401352&lt;/span&gt;" style="rounded=0;whiteSpace=wrap;html=1;" parent="1" vertex="1">
          <mxGeometry x="220" y="280" width="170" height="20" as="geometry" />
        </mxCell>
        <mxCell id="OO_ZD5q1rNDD2_6Hrn7g-44" value="&lt;span style=&quot;text-align: left&quot;&gt;00000000004019b2&lt;/span&gt;" style="rounded=0;whiteSpace=wrap;html=1;" parent="1" vertex="1">
          <mxGeometry x="220" y="220" width="170" height="20" as="geometry" />
        </mxCell>
        <mxCell id="OO_ZD5q1rNDD2_6Hrn7g-47" value="&lt;span style=&quot;text-align: left&quot;&gt;0000000000401906&lt;/span&gt;" style="rounded=0;whiteSpace=wrap;html=1;" parent="1" vertex="1">
          <mxGeometry x="220" y="200" width="170" height="20" as="geometry" />
        </mxCell>
        <mxCell id="OO_ZD5q1rNDD2_6Hrn7g-49" value="&lt;span style=&quot;color: rgb(0, 0, 0); font-family: helvetica; font-size: 12px; font-style: normal; font-weight: normal; letter-spacing: normal; text-align: left; text-indent: 0px; text-transform: none; word-spacing: 0px; background-color: rgb(248, 249, 250); text-decoration: none; display: inline; float: none;&quot;&gt;0000000000401906&lt;/span&gt;" style="text;whiteSpace=wrap;html=1;" parent="1" vertex="1">
          <mxGeometry x="659" y="183" width="130" height="30" as="geometry" />
        </mxCell>
        <mxCell id="OO_ZD5q1rNDD2_6Hrn7g-50" value="&lt;span style=&quot;text-align: left&quot;&gt;cookie字符串&lt;/span&gt;" style="rounded=0;whiteSpace=wrap;html=1;" parent="1" vertex="1">
          <mxGeometry x="220" y="180" width="170" height="20" as="geometry" />
        </mxCell>
        <mxCell id="rUjzg1HvE8T5zzHp_YMR-2" value="" style="endArrow=classic;html=1;rounded=0;exitX=1;exitY=0.5;exitDx=0;exitDy=0;entryX=0;entryY=0;entryDx=0;entryDy=0;" edge="1" parent="1" target="OO_ZD5q1rNDD2_6Hrn7g-31">
          <mxGeometry width="50" height="50" relative="1" as="geometry">
            <mxPoint x="390" y="308" as="sourcePoint" />
            <mxPoint x="480" y="388" as="targetPoint" />
          </mxGeometry>
        </mxCell>
        <mxCell id="rUjzg1HvE8T5zzHp_YMR-4" value="" style="endArrow=classic;html=1;rounded=0;exitX=1;exitY=0.5;exitDx=0;exitDy=0;entryX=0;entryY=0;entryDx=0;entryDy=0;" edge="1" parent="1" target="OO_ZD5q1rNDD2_6Hrn7g-27">
          <mxGeometry width="50" height="50" relative="1" as="geometry">
            <mxPoint x="390" y="288" as="sourcePoint" />
            <mxPoint x="480" y="350" as="targetPoint" />
          </mxGeometry>
        </mxCell>
        <mxCell id="rUjzg1HvE8T5zzHp_YMR-5" value="" style="endArrow=classic;html=1;rounded=0;exitX=1;exitY=0.5;exitDx=0;exitDy=0;entryX=0;entryY=0;entryDx=0;entryDy=0;" edge="1" parent="1">
          <mxGeometry width="50" height="50" relative="1" as="geometry">
            <mxPoint x="390" y="249" as="sourcePoint" />
            <mxPoint x="480" y="291" as="targetPoint" />
          </mxGeometry>
        </mxCell>
        <mxCell id="rUjzg1HvE8T5zzHp_YMR-6" value="" style="endArrow=classic;html=1;rounded=0;exitX=1;exitY=0.5;exitDx=0;exitDy=0;entryX=0;entryY=0;entryDx=0;entryDy=0;" edge="1" parent="1" target="OO_ZD5q1rNDD2_6Hrn7g-34">
          <mxGeometry width="50" height="50" relative="1" as="geometry">
            <mxPoint x="390" y="229" as="sourcePoint" />
            <mxPoint x="480" y="271" as="targetPoint" />
          </mxGeometry>
        </mxCell>
        <mxCell id="rUjzg1HvE8T5zzHp_YMR-7" value="" style="endArrow=classic;html=1;rounded=0;exitX=1;exitY=0.5;exitDx=0;exitDy=0;entryX=0;entryY=0;entryDx=0;entryDy=0;" edge="1" parent="1" target="OO_ZD5q1rNDD2_6Hrn7g-17">
          <mxGeometry width="50" height="50" relative="1" as="geometry">
            <mxPoint x="390" y="210" as="sourcePoint" />
            <mxPoint x="480" y="231" as="targetPoint" />
          </mxGeometry>
        </mxCell>
      </root>
    </mxGraphModel>
  </diagram>
</mxfile>
